<?xml version="1.0" standalone="no"?>
<!DOCTYPE svg PUBLIC "-//W3C//DTD SVG 20010904//EN"
 "http://www.w3.org/TR/2001/REC-SVG-20010904/DTD/svg10.dtd">
<svg version="1.0" xmlns="http://www.w3.org/2000/svg"
 width="700.000000pt" height="700.000000pt" viewBox="0 0 700.000000 700.000000"
 preserveAspectRatio="xMidYMid meet">
<metadata>
Created by potrace 1.14, written by Peter Selinger 2001-2017
</metadata>
<g transform="translate(0.000000,700.000000) scale(0.100000,-0.100000)"
fill="#000000" stroke="none">
<path d="M3278 6995 c-1 -1 -42 -5 -89 -9 -47 -4 -96 -9 -109 -11 -12 -2 -48
-7 -79 -11 -57 -6 -76 -9 -121 -19 -34 -7 -69 -14 -105 -21 -208 -37 -556
-156 -790 -270 -180 -87 -448 -247 -555 -331 -8 -6 -51 -40 -95 -74 -340 -264
-650 -624 -875 -1014 -47 -81 -170 -327 -170 -339 0 -3 -11 -29 -24 -58 -51
-113 -131 -355 -162 -488 -40 -174 -66 -313 -79 -430 -27 -235 -27 -644 0
-834 3 -17 7 -49 9 -71 10 -83 18 -131 26 -165 5 -19 12 -48 14 -65 27 -151
108 -417 186 -610 49 -123 173 -370 235 -468 30 -49 55 -90 55 -93 0 -3 4 -10
10 -17 5 -7 46 -64 91 -126 375 -532 916 -962 1519 -1208 266 -109 573 -192
839 -229 25 -3 57 -8 71 -10 168 -26 655 -25 850 2 89 12 104 15 124 19 12 2
37 7 56 9 184 26 459 105 693 197 485 193 959 526 1307 918 36 41 70 79 76 85
32 34 188 246 249 341 285 438 485 989 540 1490 4 33 9 71 11 85 9 47 11 525
4 605 -15 157 -21 210 -25 225 -2 8 -7 35 -10 60 -15 117 -78 375 -125 520
-183 553 -481 1029 -900 1436 -480 467 -1070 777 -1739 915 -53 11 -112 22
-131 24 -19 3 -46 7 -60 10 -13 2 -52 7 -86 11 -33 3 -74 8 -90 10 -33 5 -540
14 -546 9z m463 -1762 c291 -43 548 -146 792 -320 105 -75 306 -276 380 -379
160 -227 263 -469 312 -739 20 -104 28 -398 14 -493 -10 -74 -18 -118 -24
-152 -3 -14 -7 -34 -9 -45 -37 -187 -157 -448 -293 -638 -57 -79 -215 -247
-303 -321 -144 -122 -450 -286 -600 -321 -8 -2 -31 -9 -50 -15 -19 -5 -71 -17
-115 -25 -44 -8 -93 -17 -110 -21 -64 -13 -380 -12 -475 2 -106 16 -274 56
-335 80 -222 88 -367 169 -520 291 -352 282 -581 689 -642 1143 -10 72 -10
370 0 440 57 406 223 739 512 1025 273 271 632 447 1006 491 30 3 55 8 57 9
10 9 325 0 403 -12z"/>
</g>
</svg>
